<?xml version="1.0" encoding="UTF-8"?>
<svg width="33px" height="33px" viewBox="0 0 33 33" version="1.1" xmlns="http://www.w3.org/2000/svg" xmlns:xlink="http://www.w3.org/1999/xlink">
    <!-- Generator: Sketch 60.1 (88133) - https://sketch.com -->
    <title>ico-pause</title>
    <desc>Created with Sketch.</desc>
    <g id="Page-1" stroke="none" stroke-width="1" fill="none" fill-rule="evenodd">
        <g id="01-Index-Desktop" transform="translate(-828.000000, -1324.000000)">
            <g id="Footer" transform="translate(0.000000, 1307.000000)">
                <g id="player" transform="translate(810.000000, 0.000000)">
                    <g id="mini">
                        <g id="coverHover" transform="translate(7.000000, 6.000000)">
                            <g id="ico-pause" transform="translate(11.000000, 11.000000)">
                                <circle id="hover" fill="#EFEFEF" cx="16.5" cy="16.5" r="16.5"></circle>
                                <path d="M14.5714286,9 C15.1237133,9 15.5714286,9.44771525 15.5714286,10 L15.5714286,24 C15.5714286,24.5522847 15.1237133,25 14.5714286,25 L12,25 C11.4477153,25 11,24.5522847 11,24 L11,10 C11,9.44771525 11.4477153,9 12,9 L14.5714286,9 Z M21.4285714,9 C21.9808562,9 22.4285714,9.44771525 22.4285714,10 L22.4285714,24 C22.4285714,24.5522847 21.9808562,25 21.4285714,25 L18.8571429,25 C18.3048581,25 17.8571429,24.5522847 17.8571429,24 L17.8571429,10 C17.8571429,9.44771525 18.3048581,9 18.8571429,9 L21.4285714,9 Z" id="pause" fill="#2B2B2B"></path>
                            </g>
                        </g>
                    </g>
                </g>
            </g>
        </g>
    </g>
</svg>