<?xml version="1.0" encoding="UTF-8"?>
<svg width="20px" height="16px" viewBox="0 0 20 16" version="1.1" xmlns="http://www.w3.org/2000/svg" xmlns:xlink="http://www.w3.org/1999/xlink">
    <!-- Generator: Sketch 60.1 (88133) - https://sketch.com -->
    <title>ico-rules</title>
    <desc>Created with Sketch.</desc>
    <g id="Page-1" stroke="none" stroke-width="1" fill="none" fill-rule="evenodd">
        <g id="02-Music-Desktop" transform="translate(-884.000000, -271.000000)" fill="#757575" stroke="#757575">
            <g id="Header">
                <g id="LoginOpen">
                    <g transform="translate(863.000000, 0.000000)">
                        <g id="rules" transform="translate(22.000000, 270.000000)">
                            <path d="M13.0036765,3.3042354 C13.2426471,3.23070599 13.5,3.25644128 13.7205882,3.37408834 C13.9411765,3.4917354 14.1029412,3.69026481 14.1764706,3.9292354 L14.1764706,3.93291187 C14.1764706,3.93291187 14.1764706,3.93291187 14.1764706,3.93658834 L15.7573529,8.95129422 C15.2794118,8.73438246 14.7463235,8.61305893 14.1875,8.61305893 C12.2757353,8.61305893 10.6911765,10.0248236 10.4191176,11.8630589 L7.57352941,11.8630589 C7.27205882,10.0615883 5.70220588,8.68291187 3.8125,8.68291187 C3.25,8.68291187 2.71691176,8.8042354 2.23897059,9.02482363 L3.83823529,3.94026481 C3.83823529,3.94026481 3.83823529,3.94026481 3.83823529,3.93658834 L3.83823529,3.93291187 C3.98897059,3.43658834 4.51470588,3.15717657 5.01102941,3.30791187 C5.34558824,3.40717657 5.69485294,3.21967657 5.79779412,2.88879422 C5.90073529,2.5542354 5.70955882,2.20497069 5.37867647,2.10202952 C4.22058824,1.74908834 2.99264706,2.4035001 2.63602941,3.55791187 C2.63602941,3.55791187 2.63602941,3.55791187 2.63602941,3.56158834 L2.63602941,3.56526481 L2.63602941,3.56526481 L2.63602941,3.56526481 L0.290441176,11.0137942 C0.283088235,11.035853 0.279411765,11.0579119 0.272058824,11.0799707 C0.0955882353,11.5174707 0,11.9954119 0,12.4917354 C0,14.5946766 1.70955882,16.3042354 3.8125,16.3042354 C5.69852941,16.3042354 7.27205882,14.9255589 7.57352941,13.1240883 L10.4411765,13.1240883 C10.7683824,14.8924707 12.3235294,16.2380589 14.1875,16.2380589 C16.2904412,16.2380589 18,14.5285001 18,12.4255589 C18,11.9218825 17.9007353,11.4439413 17.7242647,11.0027648 L15.3786765,3.55791187 L15.3786765,3.5542354 C15.2058824,2.99541187 14.8272059,2.53585305 14.3125,2.26011775 C13.7941176,1.98438246 13.1985294,1.92555893 12.6360294,2.09467657 C12.3014706,2.19761775 12.1139706,2.54688246 12.2169118,2.88144128 C12.3161765,3.21967657 12.6691176,3.40717657 13.0036765,3.3042354 Z M3.8125,15.043206 C2.40441176,15.043206 1.26102941,13.8998236 1.26102941,12.4917354 C1.26102941,11.0836472 2.40441176,9.94026481 3.8125,9.94026481 C5.22058824,9.94026481 6.36397059,11.0836472 6.36397059,12.4917354 C6.36397059,13.8998236 5.22058824,15.043206 3.8125,15.043206 Z M14.1875,14.9770295 C12.7794118,14.9770295 11.6360294,13.8336472 11.6360294,12.4255589 C11.6360294,11.0174707 12.7794118,9.87408834 14.1875,9.87408834 C15.5955882,9.87408834 16.7389706,11.0174707 16.7389706,12.4255589 C16.7389706,13.8336472 15.5919118,14.9770295 14.1875,14.9770295 Z" id="ico-rules"></path>
                        </g>
                    </g>
                </g>
            </g>
        </g>
    </g>
</svg>