<?xml version="1.0" encoding="UTF-8"?>
<svg width="165px" height="36px" viewBox="0 0 165 36" version="1.1" xmlns="http://www.w3.org/2000/svg" xmlns:xlink="http://www.w3.org/1999/xlink">
    <!-- Generator: Sketch 60.1 (88133) - https://sketch.com -->
    <title>logo</title>
    <desc>Created with Sketch.</desc>
    <g id="Page-1" stroke="none" stroke-width="1" fill="none" fill-rule="evenodd">
        <g id="01-Index-Desktop" transform="translate(-250.000000, -15.000000)">
            <g id="Header">
                <g id="logo">
                    <g transform="translate(250.000000, 15.000000)">
                        <g transform="translate(42.000000, 8.000000)" fill-rule="nonzero">
                            <path d="M13.0118625,19.0786865 L16.6096125,0.302356364 L10.0137375,0.302356364 L8.72454375,11.8221338 L8.36476875,11.8221338 L6.92566875,0.302356364 L-1.42108547e-14,0.302356364 L3.80761875,19.0786865 L13.0118625,19.0786865 Z M23.1954938,19.0786865 L23.1954938,12.8501455 L23.5252875,12.8501455 L25.4141063,19.0786865 L32.4597,19.0786865 L28.8919313,10.0684669 L32.7595125,0.302356364 L25.8938063,0.302356364 L23.5252875,7.74032291 L23.1954938,7.74032291 L23.1954938,0.302356364 L17.1093,0.302356364 L17.1093,19.0786865 L23.1954938,19.0786865 Z" id="VK" fill="#0066DD"></path>
                            <path d="M43.3609299,19.0786865 L48.0707406,5.41217891 L52.5457474,5.41217891 L54.7135353,0.302356364 L38.2034721,0.302356364 L36.137389,5.41217891 L40.8497068,5.41217891 L36.1398961,19.0786865 L43.3609299,19.0786865 Z M57.0892911,19.3810429 C60.4907483,19.3810429 63.2321272,18.5747593 65.3134275,16.962192 C67.3947279,15.3496247 69.0136845,12.8652633 70.1702973,9.50910764 C71.3269101,6.152952 71.4220574,3.72906182 70.4557391,2.23743709 C69.4894208,0.745812364 67.282932,1.42108547e-14 63.8362727,1.42108547e-14 C60.3896134,1.42108547e-14 57.6543006,0.755890909 55.6303344,2.26767273 C53.6063681,3.77945455 52.014342,6.21846255 50.8542558,9.58469673 C49.7011164,12.9307738 49.6016397,15.4000175 50.5558259,16.9924276 C51.5100122,18.5848378 53.6878339,19.3810429 57.0892911,19.3810429 Z M58.8986179,14.5735767 C57.9041719,14.5735767 57.3468749,14.3216131 57.2267269,13.8176858 C57.1065789,13.3137585 57.3382631,12.2151971 57.9217795,10.5220015 L58.3802566,9.19163345 C58.9498797,7.538752 59.4571304,6.46034764 59.9020085,5.95642036 C60.3468866,5.45249309 61.0552481,5.20052945 62.027093,5.20052945 C62.998938,5.20052945 63.5414611,5.46257164 63.6546625,5.986656 C63.7748105,6.49058327 63.5500729,7.56898764 62.9804498,9.22186909 L62.5011328,10.6127084 C61.924563,12.2857469 61.4286129,13.3641513 61.0132825,13.8479215 C60.597952,14.3316916 59.8930638,14.5735767 58.8986179,14.5735767 Z" id="TO" fill="#6505B9"></path>
                            <path d="M78.4009687,19.0786865 L78.4009687,10.1289382 L78.550875,10.1289382 L80.2897875,19.0786865 L85.5365062,19.0786865 L87.3054,10.1289382 L87.4553062,10.1289382 L87.4553062,19.0786865 L93.1217625,19.0786865 L92.4321937,0.302356364 L84.547125,0.302356364 L83.1679875,8.79857018 L82.8981562,8.79857018 L81.4890375,0.302356364 L73.514025,0.302356364 L72.794475,19.0786865 L78.4009687,19.0786865 Z M100.756987,19.0786865 L100.756987,13.2129731 L102.046181,13.2129731 C104.364731,13.2129731 106.063669,12.7241636 107.142994,11.7465447 C108.222319,10.7689258 108.761981,9.12108364 108.761981,6.80301818 C108.761981,4.48495273 108.202331,2.82199273 107.083031,1.81413818 C105.963731,0.806283636 104.17485,0.302356364 101.716387,0.302356364 L101.716387,0.302356364 L94.460925,0.302356364 L94.460925,19.0786865 L100.756987,19.0786865 Z M101.416575,9.312576 L100.637062,9.312576 L100.637062,5.07958691 L101.266669,5.07958691 C101.786344,5.07958691 102.141122,5.24084364 102.331003,5.56335709 C102.520884,5.88587055 102.615825,6.430112 102.615825,7.19608145 C102.615825,7.96205091 102.525881,8.50629236 102.345994,8.82880582 C102.186094,9.15131927 101.876287,9.312576 101.416575,9.312576 L101.416575,9.312576 Z M115.657669,19.3810429 C117.956231,19.3810429 119.705137,18.8771156 120.904387,17.8692611 C122.103637,16.8614065 122.703262,15.4302531 122.703262,13.5758007 C122.703262,11.4391491 121.883775,10.0079956 120.2448,9.28234036 L120.2448,9.16139782 C121.024312,8.71794182 121.583962,8.19385745 121.92375,7.58914473 C122.263537,6.984432 122.433431,6.21846255 122.433431,5.29123636 C122.433431,3.61819782 121.858791,2.31806545 120.709509,1.39083927 C119.560228,0.463613091 117.871284,0 115.642678,0 C113.414072,0 111.243981,1.56236378 109.237919,2.84415035 L110.470912,6.28901236 C112.629562,5.5432 114.175285,4.99058508 114.72825,4.86645303 C115.657669,4.65781295 116.375187,5.13336278 116.375187,6.28901236 C116.375187,7.44466194 115.407825,7.58914473 114.72825,7.58914473 L112.119881,7.95765385 L112.119881,11.3882632 L114.72825,11.6469377 C115.970591,11.8864619 116.749731,12.104556 116.749731,13.2259337 C116.749731,14.3473115 115.984861,14.7284538 115.205348,14.7284538 C114.625711,14.7284538 113.019319,14.1200422 110.860669,13.4548582 L109.406982,17.3139261 C110.470912,18.0701207 111.885028,18.9275084 112.734497,19.1089222 C113.583966,19.290336 114.558356,19.3810429 115.657669,19.3810429 Z" id="MP3" fill="#F5A623"></path>
                        </g>
                        <g id="icotype">
                            <circle id="hover" fill="#6505B9" cx="18" cy="18" r="18"></circle>
                            <path d="M10.3777552,22.4483491 C10.9300399,22.4483491 11.3777552,22.8960643 11.3777552,23.4483491 L11.3777552,23.4483491 L11.3772727,25.1674545 L24.6292727,25.1674545 L24.6301673,23.4483491 C24.6301673,22.9355132 25.0162075,22.5128419 25.5135461,22.4550768 L25.6301673,22.4483491 L26.2806497,22.4483491 C26.8329344,22.4483491 27.2806497,22.8960643 27.2806497,23.4483491 L27.2806497,23.4483491 L27.2819292,25.9146604 C27.3031175,25.995683 27.3143978,26.0807126 27.3143978,26.1683769 L27.3143978,26.8188593 C27.3143978,27.3711441 26.8666826,27.8188593 26.3143978,27.8188593 L9.76102085,27.8188593 C9.35236078,27.8188593 9.00095438,27.5737272 8.84582127,27.2224826 C8.77037255,27.0819598 8.72727273,26.9206701 8.72727273,26.7493139 L8.72727273,26.7493139 L8.72727273,23.4483491 C8.72727273,22.8960643 9.17498798,22.4483491 9.72727273,22.4483491 L9.72727273,22.4483491 Z M18.3292024,6.54545455 C18.8814872,6.54545455 19.3292024,6.9931698 19.3292024,7.54545455 L19.3282727,16.7804545 L21.7336509,12.7781881 C21.9977808,12.338602 22.5463737,12.1751274 23.0024274,12.3817614 L23.1058562,12.4360589 L23.6634285,12.7710821 C24.1368289,13.0555298 24.2900054,13.6698871 24.0055577,14.1432875 L24.0055577,14.1432875 L19.5752364,21.5165804 C19.4899444,21.65853 19.37499,21.7716881 19.2430677,21.8528896 C19.0888427,22.2035142 18.7376147,22.4483491 18.3292024,22.4483491 L17.67872,22.4483491 C17.2703077,22.4483491 16.9190797,22.2035142 16.7638029,21.8526113 C16.6324701,21.7712329 16.5178064,21.6582445 16.432686,21.5165804 L12.0023647,14.1432875 C11.717917,13.6698871 11.8710935,13.0555298 12.3444939,12.7710821 L12.9020662,12.4360589 C13.3754666,12.1516112 13.9898239,12.3047877 14.2742716,12.7781881 L16.6782727,16.7794545 L16.67872,7.54545455 C16.67872,6.9931698 17.1264352,6.54545455 17.67872,6.54545455 L18.3292024,6.54545455 Z" id="download" fill="#FFFFFF"></path>
                        </g>
                    </g>
                </g>
            </g>
        </g>
    </g>
</svg>