<?xml version="1.0" encoding="UTF-8"?>
<svg width="32px" height="32px" viewBox="0 0 32 32" version="1.1" xmlns="http://www.w3.org/2000/svg" xmlns:xlink="http://www.w3.org/1999/xlink">
    <!-- Generator: Sketch 60.1 (88133) - https://sketch.com -->
    <title>favicon32</title>
    <desc>Created with Sketch.</desc>
    <g id="Page-1" stroke="none" stroke-width="1" fill="none" fill-rule="evenodd">
        <g id="logo" transform="translate(-29.000000, -274.000000)">
            <g id="favicon32" transform="translate(29.000000, 274.000000)">
                <circle id="hover" fill="#6505B9" cx="16" cy="16" r="16"></circle>
                <path d="M9.11356013,19.9540881 C9.66584488,19.9540881 10.1135601,20.4018033 10.1135601,20.9540881 L10.1135601,20.9540881 L10.1125758,22.3711818 L21.8925758,22.3711818 L21.893482,20.9540881 C21.893482,20.4412522 22.2795222,20.0185809 22.7768609,19.9608158 L22.893482,19.9540881 L23.2494664,19.9540881 C23.8017511,19.9540881 24.2494664,20.4018033 24.2494664,20.9540881 L24.2494664,20.9540881 L24.249847,23.1293398 C24.2691948,23.2069966 24.2794647,23.2882443 24.2794647,23.3718906 L24.2794647,23.7278749 C24.2794647,24.2801597 23.8317495,24.7278749 23.2794647,24.7278749 L8.78757409,24.7278749 C8.38006301,24.7278749 8.02948411,24.4841193 7.87368768,24.1344584 C7.79964821,23.9948334 7.75757576,23.8353584 7.75757576,23.6660568 L7.75757576,23.6660568 L7.75757576,20.9540881 C7.75757576,20.4018033 8.20529101,19.9540881 8.75757576,19.9540881 L8.75757576,19.9540881 Z M16.1815133,5.81818182 C16.733798,5.81818182 17.1815133,6.26589707 17.1815133,6.81818182 L17.1805758,14.9151818 L19.2615743,11.4536303 C19.5257043,11.0140441 20.0742971,10.8505695 20.5303508,11.0572035 L20.6337797,11.111501 L20.9389179,11.2948465 C21.4123183,11.5792942 21.5654948,12.1936515 21.2810471,12.6670519 L21.2810471,12.6670519 L17.4574366,19.0306084 C17.3628323,19.1880563 17.2317349,19.3100824 17.0814673,19.3923677 C16.9191459,19.7243163 16.5771626,19.9540881 16.1815133,19.9540881 L15.8255289,19.9540881 C15.4298795,19.9540881 15.0878962,19.7243163 14.9257388,19.3909324 C14.7753072,19.3100824 14.6442098,19.1880563 14.5496056,19.0306084 L10.7259951,12.6670519 C10.4415474,12.1936515 10.5947239,11.5792942 11.0681243,11.2948465 L11.3732625,11.111501 C11.8466629,10.8270534 12.4610202,10.9802298 12.7454678,11.4536303 L14.8245758,14.9151818 L14.8255289,6.81818182 C14.8255289,6.26589707 15.2732441,5.81818182 15.8255289,5.81818182 L16.1815133,5.81818182 Z" id="download" fill="#FFFFFF"></path>
            </g>
        </g>
    </g>
</svg>