<?xml version="1.0" encoding="UTF-8"?>
<svg width="22px" height="11px" viewBox="0 0 22 11" version="1.1" xmlns="http://www.w3.org/2000/svg" xmlns:xlink="http://www.w3.org/1999/xlink">
    <!-- Generator: Sketch 60.1 (88133) - https://sketch.com -->
    <title>ico-next</title>
    <desc>Created with Sketch.</desc>
    <g id="Page-1" stroke="none" stroke-width="1" fill="none" fill-rule="evenodd">
        <g id="01-Index-Desktop" transform="translate(-1098.000000, -1341.000000)" fill="#2B2B2B">
            <g id="Footer" transform="translate(0.000000, 1307.000000)">
                <g id="player" transform="translate(810.000000, 0.000000)">
                    <g id="mini">
                        <path d="M300,34 C300.155245,34 300.308358,34.0361451 300.447214,34.1055728 L309.211146,38.4875388 C309.705124,38.7345281 309.905348,39.3352011 309.658359,39.8291796 C309.561596,40.022707 309.404673,40.1796295 309.211146,40.2763932 L300.447214,44.6583592 C299.953235,44.9053485 299.352562,44.7051241 299.105573,44.2111456 C299.036145,44.0722902 299,43.9191771 299,43.763932 L299,35 C299,34.4477153 299.447715,34 300,34 Z M289,34 C289.155245,34 289.308358,34.0361451 289.447214,34.1055728 L298.211146,38.4875388 C298.705124,38.7345281 298.905348,39.3352011 298.658359,39.8291796 C298.561596,40.022707 298.404673,40.1796295 298.211146,40.2763932 L289.447214,44.6583592 C288.953235,44.9053485 288.352562,44.7051241 288.105573,44.2111456 C288.036145,44.0722902 288,43.9191771 288,43.763932 L288,35 C288,34.4477153 288.447715,34 289,34 Z" id="ico-next"></path>
                    </g>
                </g>
            </g>
        </g>
    </g>
</svg>