<?xml version="1.0" encoding="UTF-8"?>
<svg width="22px" height="11px" viewBox="0 0 22 11" version="1.1" xmlns="http://www.w3.org/2000/svg" xmlns:xlink="http://www.w3.org/1999/xlink">
    <!-- Generator: Sketch 60.1 (88133) - https://sketch.com -->
    <title>ico-back</title>
    <desc>Created with Sketch.</desc>
    <g id="Page-1" stroke="none" stroke-width="1" fill="none" fill-rule="evenodd">
        <g id="01-Index-Desktop" transform="translate(-887.000000, -1341.000000)" fill="#2B2B2B">
            <g id="Footer" transform="translate(0.000000, 1307.000000)">
                <g id="player" transform="translate(810.000000, 0.000000)">
                    <g id="mini">
                        <path d="M89,34 C89.1552451,34 89.3083582,34.0361451 89.4472136,34.1055728 L98.2111456,38.4875388 C98.7051241,38.7345281 98.9053485,39.3352011 98.6583592,39.8291796 C98.5615955,40.022707 98.404673,40.1796295 98.2111456,40.2763932 L89.4472136,44.6583592 C88.9532351,44.9053485 88.3525621,44.7051241 88.1055728,44.2111456 C88.0361451,44.0722902 88,43.9191771 88,43.763932 L88,35 C88,34.4477153 88.4477153,34 89,34 Z M78,34 C78.1552451,34 78.3083582,34.0361451 78.4472136,34.1055728 L87.2111456,38.4875388 C87.7051241,38.7345281 87.9053485,39.3352011 87.6583592,39.8291796 C87.5615955,40.022707 87.404673,40.1796295 87.2111456,40.2763932 L78.4472136,44.6583592 C77.9532351,44.9053485 77.3525621,44.7051241 77.1055728,44.2111456 C77.0361451,44.0722902 77,43.9191771 77,43.763932 L77,35 C77,34.4477153 77.4477153,34 78,34 Z" id="ico-back" transform="translate(87.882076, 39.382076) scale(-1, 1) translate(-87.882076, -39.382076) "></path>
                    </g>
                </g>
            </g>
        </g>
    </g>
</svg>