<?xml version="1.0" encoding="UTF-8"?>
<svg width="33px" height="33px" viewBox="0 0 33 33" version="1.1" xmlns="http://www.w3.org/2000/svg" xmlns:xlink="http://www.w3.org/1999/xlink">
    <!-- Generator: Sketch 60.1 (88133) - https://sketch.com -->
    <title>ico-download-no-active</title>
    <desc>Created with Sketch.</desc>
    <g id="Page-1" stroke="none" stroke-width="1" fill="none" fill-rule="evenodd">
        <g id="01-Index-Desktop" transform="translate(-1144.000000, -1325.000000)">
            <g id="Footer" transform="translate(0.000000, 1307.000000)">
                <g id="player" transform="translate(810.000000, 0.000000)">
                    <g id="mini">
                        <g id="ico-download" transform="translate(334.000000, 18.000000)">
                            <g id="ico-download-no-active">
                                <circle id="bg" fill="#6505B9" cx="16.5" cy="16.5" r="16.5"></circle>
                                <path d="M9.42960889,20.5776533 C9.98189364,20.5776533 10.4296089,21.0253686 10.4296089,21.5776533 L10.4296089,21.5776533 L10.429,23.071 L22.577,23.071 L22.5776533,21.5776533 C22.5776533,21.0648175 22.9636935,20.6421462 23.4610322,20.5843811 L23.5776533,20.5776533 L24.0072622,20.5776533 C24.559547,20.5776533 25.0072622,21.0253686 25.0072622,21.5776533 L25.0072622,21.5776533 L25.0085802,23.8284614 C25.027928,23.9061182 25.038198,23.9873658 25.038198,24.0710121 L25.038198,24.500621 C25.038198,25.0529058 24.5904827,25.500621 24.038198,25.500621 L9.03093578,25.500621 C8.6234247,25.500621 8.2728458,25.2568654 8.11704937,24.9072045 C8.04248191,24.7671958 8,24.6069945 8,24.4368711 L8,24.4368711 L8,21.5776533 C8,21.0253686 8.44771525,20.5776533 9,20.5776533 L9,20.5776533 Z M16.7184356,6 C17.2707203,6 17.7184356,6.44771525 17.7184356,7 L17.718,15.381 L19.8795934,11.7847697 C20.1437234,11.3451836 20.6923163,11.181709 21.14837,11.388343 L21.2517988,11.4426405 L21.6200455,11.6639054 C22.0934459,11.9483531 22.2466224,12.5627104 21.9621747,13.0361108 L21.9621747,13.0361108 L17.9868865,19.6521014 C17.8946104,19.8056747 17.767615,19.9255482 17.6219758,20.0077138 C17.4613423,20.3443221 17.1171377,20.5776533 16.7184356,20.5776533 L16.2888267,20.5776533 C15.8901246,20.5776533 15.5459199,20.3443221 15.3853153,20.0067623 C15.2396472,19.9255482 15.1126518,19.8056747 15.0203757,19.6521014 L11.0450875,13.0361108 C10.7606398,12.5627104 10.9138163,11.9483531 11.3872167,11.6639054 L11.7554634,11.4426405 C12.2288638,11.1581928 12.8432211,11.3113693 13.1276688,11.7847697 L15.288,15.381 L15.2888267,7 C15.2888267,6.44771525 15.7365419,6 16.2888267,6 L16.7184356,6 Z" id="download" fill="#FFFFFF"></path>
                            </g>
                        </g>
                    </g>
                </g>
            </g>
        </g>
    </g>
</svg>