<?xml version="1.0" encoding="UTF-8"?>
<svg width="40px" height="29px" viewBox="0 0 40 29" version="1.1" xmlns="http://www.w3.org/2000/svg" xmlns:xlink="http://www.w3.org/1999/xlink">
    <!-- Generator: Sketch 60.1 (88133) - https://sketch.com -->
    <title>bg-element-18</title>
    <desc>Created with Sketch.</desc>
    <g id="Page-1" stroke="none" stroke-width="1" fill="none" fill-rule="evenodd" opacity="0.301195145">
        <g id="01-Index-Desktop" transform="translate(-132.000000, -932.000000)" fill="#4A4A4A" fill-rule="nonzero">
            <g id="Content" transform="translate(0.000000, 120.000000)">
                <g id="About" transform="translate(0.000000, 677.000000)">
                    <g id="BG">
                        <path d="M151.558431,159.519044 C150.925922,158.3451 149.341317,153.888393 153.267338,152.830016 C154.840278,152.406044 156.312245,153.329882 156.938755,154.478642 C157.581928,155.656725 158.234765,160.207265 153.834529,161.520578 C151.970994,162.077019 148.999736,161.334292 147.679399,159.843664 C143.198517,154.785668 147.766044,150.0792 148.327237,149.392014 C150.405718,146.849217 158.288751,142.461504 156.363565,131.309904 C156.188275,130.294303 155.798039,129.17797 155.002571,128.506653 C153.59159,127.315461 152.104961,128.444212 151.21585,129.63506 C150.11979,131.102575 149.66557,134.343252 149.758213,136.146082 C150.078467,142.366637 152.028314,148.634108 152.106627,149.05739 C152.241594,149.783558 153.891182,156.289751 154.023482,156.742355 C156.12929,163.952293 156.145619,166.537522 155.8227,168.856431 C155.445128,171.567229 151.811368,173.526676 150.082466,170.932824 C150.688648,171.008373 152.241927,170.232183 152.108294,168.566308 C151.93467,166.409192 150.111459,165.959692 148.722139,166.648948 C147.401801,167.303707 147.07455,169.256599 147.940667,170.812773 C148.924755,172.580415 152.050308,173.658801 154.278419,172.550403 C159.18986,170.107648 155.202521,158.097755 154.597006,156.013427 C153.918175,153.677614 150.230762,140.640391 150.747966,135.344364 C151.008235,132.678067 152.918425,130.131476 154.249759,131.389938 C155.690733,132.751547 155.378144,135.314352 155.175528,136.212662 C154.523691,139.104571 152.606836,141.381738 150.545017,143.312208 C148.54385,145.186102 146.194103,147.499146 144.901425,149.992612 C143.489111,152.717899 143.712389,157.186681 145.740882,159.668762 C146.432377,160.514981 148.171943,162.275379 150.834278,162.664854 C154.817951,163.247513 160.381896,161.314974 159.979329,155.2055 C159.625084,149.832544 153.589257,148.405391 150.602003,150.968541 C149.923505,151.550855 149.333986,152.353608 149.013399,153.252608 C148.161279,155.642926 149.198686,158.839447 151.558431,159.519044 Z" id="bg-element-18" transform="translate(152.000000, 150.500000) rotate(-126.000000) translate(-152.000000, -150.500000) "></path>
                    </g>
                </g>
            </g>
        </g>
    </g>
</svg>