<?xml version="1.0" encoding="UTF-8"?>
<svg width="48px" height="72px" viewBox="0 0 48 72" version="1.1" xmlns="http://www.w3.org/2000/svg" xmlns:xlink="http://www.w3.org/1999/xlink">
    <!-- Generator: Sketch 60.1 (88133) - https://sketch.com -->
    <title>bg-element-12</title>
    <desc>Created with Sketch.</desc>
    <g id="Page-1" stroke="none" stroke-width="1" fill="none" fill-rule="evenodd" opacity="0.301195145">
        <g id="01-Index-Desktop" transform="translate(-126.000000, -1200.000000)" fill="#BD10E0" fill-rule="nonzero">
            <g id="Content" transform="translate(0.000000, 120.000000)">
                <g id="About" transform="translate(0.000000, 677.000000)">
                    <g id="BG">
                        <path d="M172.243459,427.080914 L172.243459,425.465231 L172.017847,425.520205 L172.019711,421.129721 L172.084971,421.112018 L172.084971,413.710997 L135.391309,422.99605 L134.943814,423.016548 L134.948475,455.065588 L135.033313,455.249146 C134.622177,454.823328 134.095438,454.472052 133.509033,454.237247 C132.626162,453.866404 131.643538,453.693096 130.662778,453.651166 C128.691003,453.578488 126.722957,454.085369 125.029002,454.946322 C123.334114,455.810069 121.915182,457.125723 121.079858,458.671524 C120.262247,460.17819 119.836194,462.010043 120.785257,463.498074 C121.75483,464.973992 123.795593,465.59548 125.696515,465.696111 C127.645915,465.801401 129.627946,465.342972 131.321901,464.484815 C133.00933,463.618272 134.482335,462.36691 135.376392,460.823904 C135.821091,460.056129 136.125947,459.224061 136.205191,458.371495 C136.254602,457.982017 136.216378,457.590675 136.125014,457.212378 L136.134337,436.220611 L170.831985,427.438712 L170.834782,446.902382 L170.918687,447.087803 C170.508483,446.661054 169.982677,446.309778 169.395339,446.074041 C168.511537,445.702267 167.530777,445.52989 166.548152,445.488892 C164.577309,445.416214 162.610196,445.923095 160.914376,446.783116 C159.220421,447.648727 157.801488,448.962517 156.965232,450.50925 C156.148553,452.015916 155.722501,453.848701 156.671563,455.334868 C157.640204,456.810786 159.680968,457.432274 161.580957,457.532905 C163.530357,457.638195 165.512387,457.179766 167.208207,456.321609 C168.894704,455.455066 170.366776,454.202772 171.261767,452.659767 C171.706465,451.894786 172.011321,451.060855 172.090565,450.209221 C172.140908,449.819743 172.102684,449.427469 172.010388,449.049172 L172.020644,427.137752 L172.243459,427.080914 Z M136.134337,434.475412 L136.136202,430.209786 L170.83012,421.430682 L170.83012,425.817438 L136.134337,434.475412 Z" id="bg-element-12" transform="translate(146.243459, 439.710997) rotate(-47.000000) translate(-146.243459, -439.710997) "></path>
                    </g>
                </g>
            </g>
        </g>
    </g>
</svg>