<?xml version="1.0" encoding="UTF-8"?>
<svg width="41px" height="44px" viewBox="0 0 41 44" version="1.1" xmlns="http://www.w3.org/2000/svg" xmlns:xlink="http://www.w3.org/1999/xlink">
    <!-- Generator: Sketch 60.1 (88133) - https://sketch.com -->
    <title>bg-element-15</title>
    <desc>Created with Sketch.</desc>
    <g id="Page-1" stroke="none" stroke-width="1" fill="none" fill-rule="evenodd" opacity="0.301195145">
        <g id="01-Index-Desktop" transform="translate(-671.000000, -1255.000000)" fill="#D0021B" fill-rule="nonzero">
            <g id="Content" transform="translate(0.000000, 120.000000)">
                <g id="About" transform="translate(0.000000, 677.000000)">
                    <g id="BG">
                        <path d="M698.444571,454.868939 L697.038166,454.868939 L697.038166,493.794886 C696.518432,493.230193 695.829171,492.779127 695.069646,492.492189 C693.998949,492.064078 692.818952,491.885029 691.644532,491.867813 C689.285653,491.844858 686.94908,492.534656 684.951562,493.651417 C682.950697,494.772769 681.297809,496.44045 680.350912,498.372113 C679.421859,500.255571 678.97462,502.525821 680.157963,504.324346 C681.364728,506.109097 683.823984,506.804634 686.101445,506.864317 C688.434672,506.929738 690.79132,506.297328 692.789954,505.182863 C694.77855,504.059215 696.498357,502.468434 697.516634,500.537918 C698.021869,499.580694 698.359808,498.545424 698.427842,497.491789 C698.438995,497.36898 698.42338,497.24617 698.42338,497.122213 L698.443456,497.166976 L698.443456,454.868939 L698.444571,454.868939 Z" id="bg-element-15" transform="translate(688.944571, 480.868939) rotate(-56.000000) translate(-688.944571, -480.868939) "></path>
                    </g>
                </g>
            </g>
        </g>
    </g>
</svg>