<?xml version="1.0" encoding="UTF-8"?>
<svg width="37px" height="56px" viewBox="0 0 37 56" version="1.1" xmlns="http://www.w3.org/2000/svg" xmlns:xlink="http://www.w3.org/1999/xlink">
    <!-- Generator: Sketch 60.1 (88133) - https://sketch.com -->
    <title>bg-element-09</title>
    <desc>Created with Sketch.</desc>
    <g id="Page-1" stroke="none" stroke-width="1" fill="none" fill-rule="evenodd" opacity="0.301195145">
        <g id="01-Index-Desktop" transform="translate(-281.000000, -892.000000)" fill="#2DBAFF" fill-rule="nonzero">
            <g id="Content" transform="translate(0.000000, 120.000000)">
                <g id="About" transform="translate(0.000000, 677.000000)">
                    <g id="BG">
                        <path d="M315.921215,131.183751 L315.930947,109.706162 L315.981106,109.693475 L315.981106,104 L287.682378,111.142031 L287.336505,111.157704 L287.340248,135.810026 L287.406128,135.951822 C287.087955,135.624199 286.68219,135.353294 286.230009,135.172691 C285.548744,134.88686 284.791865,134.754766 284.034986,134.722676 C282.514491,134.666704 280.996991,135.056269 279.689859,135.718232 C278.382727,136.383926 277.28821,137.394407 276.644377,138.584746 C276.014019,139.74374 275.686113,141.152743 276.418286,142.296811 C277.164684,143.431924 278.738333,143.910298 280.204926,143.988659 C281.707453,144.069259 283.236184,143.716262 284.543315,143.056538 C285.844458,142.390844 286.98015,141.426633 287.669651,140.240026 C288.01253,139.6512 288.247604,139.01088 288.308993,138.355634 C288.347173,138.055624 288.317976,137.754121 288.246855,137.464559 L288.256588,116.692218 L315.012361,109.939006 L315.015356,129.532949 L315.081236,129.674745 C314.763812,129.347868 314.357298,129.076217 313.905866,128.895614 C313.2246,128.609037 312.466973,128.476943 311.710843,128.445599 C310.190348,128.38888 308.672099,128.778446 307.364967,129.440408 C306.057835,130.106102 304.963318,131.117331 304.319485,132.306923 C303.689127,133.465917 303.361221,134.87492 304.092646,136.018242 C304.839792,137.154847 306.413441,137.632475 307.880034,137.710836 C309.382561,137.791436 310.911292,137.438439 312.218423,136.778715 C313.519566,136.112275 314.655258,135.148809 315.344759,133.962202 C315.687638,133.373377 315.92346,132.733057 315.984101,132.077811 C316.020784,131.776308 315.991587,131.474805 315.921215,131.183751 Z" id="bg-element-09" transform="translate(296.000000, 124.000000) rotate(-42.000000) translate(-296.000000, -124.000000) "></path>
                    </g>
                </g>
            </g>
        </g>
    </g>
</svg>