<?xml version="1.0" encoding="UTF-8"?>
<svg width="64px" height="42px" viewBox="0 0 64 42" version="1.1" xmlns="http://www.w3.org/2000/svg" xmlns:xlink="http://www.w3.org/1999/xlink">
    <!-- Generator: Sketch 60.1 (88133) - https://sketch.com -->
    <title>bg-element-08</title>
    <desc>Created with Sketch.</desc>
    <g id="Page-1" stroke="none" stroke-width="1" fill="none" fill-rule="evenodd" opacity="0.301195145">
        <g id="01-Index-Desktop" transform="translate(-1338.000000, -1051.000000)" fill="#50E3C2" fill-rule="nonzero">
            <g id="Content" transform="translate(0.000000, 120.000000)">
                <g id="About" transform="translate(0.000000, 677.000000)">
                    <g id="BG">
                        <path d="M1347.63988,270.271719 L1347.62831,294.972168 L1347.57043,294.98618 L1347.57043,301.534062 L1380.11364,293.319537 L1380.51134,293.302227 L1380.50721,264.951978 L1380.43032,264.787951 C1380.7966,265.164636 1381.26293,265.476204 1381.78301,265.684741 C1382.56684,266.012794 1383.43667,266.165281 1384.30898,266.201548 C1386.05607,266.26584 1387.80233,265.81827 1389.30551,265.057483 C1390.80786,264.290925 1392.0663,263.128726 1392.80796,261.761287 C1393.53227,260.427642 1393.9093,258.806333 1393.06841,257.492471 C1392.20934,256.186026 1390.39941,255.636248 1388.71267,255.547229 C1386.9846,255.454088 1385.22758,255.859622 1383.72441,256.619585 C1382.22702,257.385317 1380.92228,258.493116 1380.12935,259.858082 C1379.73412,260.534796 1379.46375,261.273328 1379.39264,262.026697 C1379.34882,262.371236 1379.38272,262.718247 1379.46458,263.051246 L1379.45383,286.938979 L1348.68417,294.705109 L1348.68086,272.171627 L1348.60562,272.009249 C1348.96943,272.384285 1349.43741,272.696678 1349.95749,272.90439 C1350.7405,273.233268 1351.61198,273.385755 1352.4818,273.422022 C1354.22972,273.487962 1355.97599,273.037919 1357.47834,272.277132 C1358.98151,271.512223 1360.23995,270.349199 1360.98079,268.98176 C1361.70592,267.64894 1362.08378,266.028455 1361.24124,264.712944 C1360.38216,263.4065 1358.57223,262.856722 1356.88633,262.767702 C1355.1566,262.674562 1353.39958,263.080919 1351.89723,263.839234 C1350.40067,264.605791 1349.09428,265.712765 1348.30135,267.078556 C1347.90695,267.756918 1347.63658,268.492977 1347.5663,269.247171 C1347.52496,269.590061 1347.55886,269.937072 1347.63988,270.271719 Z" id="bg-element-08" transform="translate(1370.548627, 278.534062) rotate(-314.000000) translate(-1370.548627, -278.534062) "></path>
                    </g>
                </g>
            </g>
        </g>
    </g>
</svg>