<?xml version="1.0" encoding="UTF-8"?>
<svg width="36px" height="42px" viewBox="0 0 36 42" version="1.1" xmlns="http://www.w3.org/2000/svg" xmlns:xlink="http://www.w3.org/1999/xlink">
    <!-- Generator: Sketch 60.1 (88133) - https://sketch.com -->
    <title>bg-element-02</title>
    <desc>Created with Sketch.</desc>
    <g id="Page-1" stroke="none" stroke-width="1" fill="none" fill-rule="evenodd" opacity="0.301195145">
        <g id="01-Index-Desktop" transform="translate(-488.000000, -809.000000)" fill="#17A888" fill-rule="nonzero">
            <g id="Content" transform="translate(0.000000, 120.000000)">
                <g id="About" transform="translate(0.000000, 677.000000)">
                    <g id="BG">
                        <path d="M525,14 L524.987763,14 L524.502615,14 L496.242043,14 L496.242043,14.0008387 L496.227043,14.0008387 L496.227043,42.4446283 C496.043089,42.0319862 495.799134,41.7023758 495.530309,41.4926999 C495.151348,41.1798635 494.733702,41.0490258 494.31803,41.0372839 C493.483133,41.0196711 492.656131,41.5237319 491.949134,42.3397904 C491.240951,43.1592037 490.655931,44.3778399 490.320788,45.7893778 C489.991961,47.1656902 489.833666,48.8246457 490.252497,50.138894 C490.679616,51.4430779 491.550041,51.9521709 492.356121,51.9949448 C493.181939,52.0427509 494.016046,51.5806253 494.723439,50.7662442 C495.427279,49.9459922 496.035984,48.7827105 496.396391,47.3720113 C496.575213,46.6725326 496.694822,45.916022 496.718902,45.1460922 C496.722849,45.056351 496.717323,44.9674484 496.717323,44.8760297 L496.724428,44.9087392 L496.724428,25.0658536 L510.364631,25.0658536 L510.364631,42.445467 C510.180678,42.0328249 509.936722,41.7032145 509.667897,41.4935386 C509.288937,41.1807022 508.871291,41.0498645 508.455619,41.0381226 C507.620722,41.0205098 506.79372,41.5245706 506.086722,42.3406291 C505.37854,43.1600424 504.79352,44.3786786 504.458377,45.7902165 C504.12955,47.1665289 503.971255,48.8254844 504.390085,50.1397327 C504.817205,51.4439166 505.687629,51.9530096 506.49371,51.9957835 C507.319527,52.0435896 508.153635,51.581464 508.861027,50.7670829 C509.564867,49.9468309 510.173572,48.7835492 510.533979,47.37285 C510.712801,46.6733713 510.832411,45.9168607 510.85649,45.1469309 C510.860438,45.0571897 510.854911,44.9682871 510.854911,44.8768684 L510.862017,44.9095779 L510.862017,25.0666923 L524.50222,25.0666923 L524.50222,42.4463057 C524.318266,42.0336636 524.07431,41.7040532 523.805485,41.4943773 C523.426525,41.1815409 523.008879,41.0507032 522.593207,41.0381226 C521.75831,41.0205098 520.931308,41.5254093 520.22431,42.3414678 C519.516128,43.1608811 518.931108,44.3795173 518.595965,45.7910552 C518.267138,47.1673676 518.108843,48.8263231 518.527674,50.1405714 C518.954793,51.4447553 519.825218,51.9530096 520.631298,51.9966222 C521.457116,52.0444283 522.291223,51.5823027 522.998616,50.7679216 C523.702456,49.9476696 524.311161,48.7843879 524.671568,47.3736887 C524.85039,46.67421 524.969999,45.9176994 524.994079,45.1477696 C524.998026,45.0580284 524.9925,44.9682871 524.9925,44.8777071 L524.999605,44.9104166 L524.999605,14 L525,14 Z M496.724428,23.6928961 L496.724428,19.9866654 L510.364631,19.9866654 L510.364631,23.6928961 L496.724428,23.6928961 Z M510.862412,23.6928961 L510.862412,19.9866654 L524.502615,19.9866654 L524.502615,23.6928961 L510.862412,23.6928961 Z" id="bg-element-02" transform="translate(507.500000, 33.000000) rotate(-187.000000) translate(-507.500000, -33.000000) "></path>
                    </g>
                </g>
            </g>
        </g>
    </g>
</svg>