<?xml version="1.0" encoding="UTF-8"?>
<svg width="27px" height="40px" viewBox="0 0 27 40" version="1.1" xmlns="http://www.w3.org/2000/svg" xmlns:xlink="http://www.w3.org/1999/xlink">
    <!-- Generator: Sketch 60.1 (88133) - https://sketch.com -->
    <title>bg-element-13</title>
    <desc>Created with Sketch.</desc>
    <g id="Page-1" stroke="none" stroke-width="1" fill="none" fill-rule="evenodd" opacity="0.301195145">
        <g id="01-Index-Desktop" transform="translate(-178.000000, -1032.000000)" fill="#FF001F" fill-rule="nonzero">
            <g id="Content" transform="translate(0.000000, 120.000000)">
                <g id="About" transform="translate(0.000000, 677.000000)">
                    <g id="BG">
                        <path d="M191.062532,239.086831 L191.062532,238 L189.947584,238 L189.947584,267.943036 C189.535557,267.508657 188.989135,267.161683 188.38701,266.940962 C187.538199,266.611646 186.602739,266.473916 185.6717,266.460672 C183.801664,266.443015 181.949311,266.973628 180.365749,267.832675 C178.779534,268.695254 177.469182,269.978085 176.718515,271.46398 C175.981995,272.912794 175.627439,274.65914 176.565552,276.04262 C177.522233,277.415506 179.471845,277.950534 181.277336,277.996444 C183.127036,278.046769 184.995304,277.560299 186.579751,276.703018 C188.15624,275.838674 189.519642,274.614996 190.326896,273.129984 C190.727429,272.393658 190.995335,271.597296 191.04927,270.786808 C191.058112,270.692339 191.045733,270.59787 191.045733,270.502519 L191.061648,270.536951 L191.061648,245.639602 C193.627532,250.885703 203.08293,245.888575 203.890185,260.978841 C204.935283,237.805765 198.358768,249.239123 191.062532,239.086831 Z" id="bg-element-13" transform="translate(190.000000, 258.000000) rotate(-227.000000) translate(-190.000000, -258.000000) "></path>
                    </g>
                </g>
            </g>
        </g>
    </g>
</svg>