<?xml version="1.0" encoding="UTF-8"?>
<svg width="63px" height="41px" viewBox="0 0 63 41" version="1.1" xmlns="http://www.w3.org/2000/svg" xmlns:xlink="http://www.w3.org/1999/xlink">
    <!-- Generator: Sketch 60.1 (88133) - https://sketch.com -->
    <title>bg-element-06</title>
    <desc>Created with Sketch.</desc>
    <g id="Page-1" stroke="none" stroke-width="1" fill="none" fill-rule="evenodd" opacity="0.301195145">
        <g id="01-Index-Desktop" transform="translate(-443.000000, -1260.000000)" fill="#50E3C2" fill-rule="nonzero">
            <g id="Content" transform="translate(0.000000, 120.000000)">
                <g id="About" transform="translate(0.000000, 677.000000)">
                    <g id="BG">
                        <path d="M452.97416,478.364644 L452.962836,502.528127 L452.906216,502.541834 L452.906216,508.94737 L484.741963,500.911422 L485.131023,500.894489 L485.126978,473.160549 L485.051755,473.000089 C485.410078,473.368584 485.866273,473.673379 486.375043,473.877383 C487.141838,474.198304 487.992754,474.347477 488.846097,474.382955 C490.555208,474.44585 492.263511,474.008009 493.734011,473.263761 C495.203702,472.513868 496.43478,471.376933 497.160323,470.039221 C497.868881,468.734569 498.237719,467.148505 497.415113,465.863205 C496.574712,464.585162 494.804127,464.047336 493.154061,463.960251 C491.463553,463.869135 489.744735,464.265853 488.274236,465.009295 C486.809398,465.758382 485.533024,466.842098 484.757331,468.177391 C484.370699,468.839393 484.106203,469.56187 484.036641,470.298862 C483.993772,470.63591 484.026935,470.975378 484.107012,471.301138 L484.096496,494.669572 L453.995744,502.266874 L453.992509,480.22325 L453.918903,480.064402 C454.274799,480.431285 454.732612,480.736886 455.241382,480.940083 C456.007368,481.261811 456.859902,481.410983 457.710818,481.446462 C459.420739,481.510969 461.129042,481.070709 462.598732,480.326461 C464.069232,479.578181 465.30031,478.44044 466.025045,477.102728 C466.734411,475.798882 467.104058,474.213625 466.279834,472.926712 C465.439433,471.648669 463.668848,471.110842 462.019592,471.023758 C460.327466,470.932642 458.608648,471.330166 457.138957,472.071995 C455.674928,472.821888 454.396937,473.904798 453.621244,475.240897 C453.23542,475.904512 452.970924,476.624571 452.902171,477.362368 C452.861729,477.697804 452.894892,478.037272 452.97416,478.364644 Z" id="bg-element-06" transform="translate(475.384886, 486.447370) rotate(-321.000000) translate(-475.384886, -486.447370) "></path>
                    </g>
                </g>
            </g>
        </g>
    </g>
</svg>