<?xml version="1.0" encoding="UTF-8"?>
<svg width="36px" height="36px" viewBox="0 0 36 36" version="1.1" xmlns="http://www.w3.org/2000/svg" xmlns:xlink="http://www.w3.org/1999/xlink">
    <!-- Generator: Sketch 60.1 (88133) - https://sketch.com -->
    <title>icotype</title>
    <desc>Created with Sketch.</desc>
    <g id="Page-1" stroke="none" stroke-width="1" fill="none" fill-rule="evenodd">
        <g id="01-Index-Mobile" transform="translate(-11.000000, -15.000000)">
            <g id="Header">
                <g id="logo">
                    <g transform="translate(11.000000, 15.000000)">
                        <g id="icotype">
                            <circle id="hover" fill="#6505B9" cx="18" cy="18" r="18"></circle>
                            <path d="M10.3777552,22.4483491 C10.9300399,22.4483491 11.3777552,22.8960643 11.3777552,23.4483491 L11.3777552,23.4483491 L11.3772727,25.1674545 L24.6292727,25.1674545 L24.6301673,23.4483491 C24.6301673,22.9355132 25.0162075,22.5128419 25.5135461,22.4550768 L25.6301673,22.4483491 L26.2806497,22.4483491 C26.8329344,22.4483491 27.2806497,22.8960643 27.2806497,23.4483491 L27.2806497,23.4483491 L27.2819292,25.9146604 C27.3031175,25.995683 27.3143978,26.0807126 27.3143978,26.1683769 L27.3143978,26.8188593 C27.3143978,27.3711441 26.8666826,27.8188593 26.3143978,27.8188593 L9.76102085,27.8188593 C9.35236078,27.8188593 9.00095438,27.5737272 8.84582127,27.2224826 C8.77037255,27.0819598 8.72727273,26.9206701 8.72727273,26.7493139 L8.72727273,26.7493139 L8.72727273,23.4483491 C8.72727273,22.8960643 9.17498798,22.4483491 9.72727273,22.4483491 L9.72727273,22.4483491 Z M18.3292024,6.54545455 C18.8814872,6.54545455 19.3292024,6.9931698 19.3292024,7.54545455 L19.3282727,16.7804545 L21.7336509,12.7781881 C21.9977808,12.338602 22.5463737,12.1751274 23.0024274,12.3817614 L23.1058562,12.4360589 L23.6634285,12.7710821 C24.1368289,13.0555298 24.2900054,13.6698871 24.0055577,14.1432875 L24.0055577,14.1432875 L19.5752364,21.5165804 C19.4899444,21.65853 19.37499,21.7716881 19.2430677,21.8528896 C19.0888427,22.2035142 18.7376147,22.4483491 18.3292024,22.4483491 L17.67872,22.4483491 C17.2703077,22.4483491 16.9190797,22.2035142 16.7638029,21.8526113 C16.6324701,21.7712329 16.5178064,21.6582445 16.432686,21.5165804 L12.0023647,14.1432875 C11.717917,13.6698871 11.8710935,13.0555298 12.3444939,12.7710821 L12.9020662,12.4360589 C13.3754666,12.1516112 13.9898239,12.3047877 14.2742716,12.7781881 L16.6782727,16.7794545 L16.67872,7.54545455 C16.67872,6.9931698 17.1264352,6.54545455 17.67872,6.54545455 L18.3292024,6.54545455 Z" id="download" fill="#FFFFFF"></path>
                        </g>
                    </g>
                </g>
            </g>
        </g>
    </g>
</svg>