<?xml version="1.0" encoding="UTF-8"?>
<svg width="41px" height="16px" viewBox="0 0 41 16" version="1.1" xmlns="http://www.w3.org/2000/svg" xmlns:xlink="http://www.w3.org/1999/xlink">
    <!-- Generator: Sketch 60.1 (88133) - https://sketch.com -->
    <title>bg-element-17</title>
    <desc>Created with Sketch.</desc>
    <g id="Page-1" stroke="none" stroke-width="1" fill="none" fill-rule="evenodd" opacity="0.301195145">
        <g id="01-Index-Desktop" transform="translate(-1355.000000, -964.000000)" fill="#D0021B" fill-rule="nonzero">
            <g id="Content" transform="translate(0.000000, 120.000000)">
                <g id="About" transform="translate(0.000000, 677.000000)">
                    <g id="BG">
                        <path d="M1383.11423,155.0236 L1382.00391,155.0236 L1382.00391,184.966636 C1381.59359,184.532256 1381.04944,184.185283 1380.44981,183.964562 C1379.60453,183.635246 1378.67295,183.497515 1377.74578,183.484272 C1375.8835,183.466615 1374.03884,183.997228 1372.46185,184.856275 C1370.88222,185.718853 1369.57731,187.001685 1368.82976,188.48758 C1368.0963,189.936394 1367.74322,191.68274 1368.67743,193.06622 C1369.63014,194.439106 1371.57166,194.974134 1373.36966,195.020044 C1375.21168,195.070369 1377.07219,194.583899 1378.65006,193.726618 C1380.22,192.862274 1381.57774,191.638596 1382.38165,190.153584 C1382.78052,189.417258 1383.04731,188.620896 1383.10102,187.810407 C1383.10983,187.715939 1383.0975,187.62147 1383.0975,187.526119 L1383.11335,187.560551 L1383.11335,155.0236 L1383.11423,155.0236 Z" id="bg-element-17" transform="translate(1375.614229, 175.023600) rotate(-269.000000) translate(-1375.614229, -175.023600) "></path>
                    </g>
                </g>
            </g>
        </g>
    </g>
</svg>