<?xml version="1.0" encoding="UTF-8"?>
<svg width="15px" height="43px" viewBox="0 0 15 43" version="1.1" xmlns="http://www.w3.org/2000/svg" xmlns:xlink="http://www.w3.org/1999/xlink">
    <!-- Generator: Sketch 60.1 (88133) - https://sketch.com -->
    <title>bg-element-16</title>
    <desc>Created with Sketch.</desc>
    <g id="Page-1" stroke="none" stroke-width="1" fill="none" fill-rule="evenodd" opacity="0.301195145">
        <g id="01-Index-Desktop" transform="translate(-726.000000, -814.000000)" fill="#D0021B" fill-rule="nonzero">
            <g id="Content" transform="translate(0.000000, 120.000000)">
                <g id="About" transform="translate(0.000000, 677.000000)">
                    <g id="BG">
                        <path d="M744.152674,17.4902103 L743.042354,17.4902103 L743.042354,48.181822 C742.632038,47.7365832 742.087884,47.3809352 741.488259,47.1546959 C740.642972,46.817147 739.711395,46.6759738 738.784221,46.6623994 C736.921949,46.6443003 735.077286,47.1881794 733.500298,48.0687024 C731.920668,48.9528452 730.615756,50.2677475 729.868206,51.7907899 C729.134743,53.2758241 728.78166,55.0658288 729.715878,56.4838962 C730.668587,57.8911041 732.610105,58.4395079 734.408101,58.4865657 C736.250122,58.5381482 738.110633,58.039517 739.688502,57.1608039 C741.258446,56.2748511 742.616189,55.0205809 743.420092,53.4984435 C743.818961,52.7437095 744.085755,51.9274384 744.139466,51.096688 C744.148271,50.9998576 744.135944,50.9030272 744.135944,50.8052919 L744.151793,50.8405852 L744.151793,17.4902103 L744.152674,17.4902103 Z" id="bg-element-16" transform="translate(736.652674, 37.990210) rotate(-192.000000) translate(-736.652674, -37.990210) "></path>
                    </g>
                </g>
            </g>
        </g>
    </g>
</svg>