<?xml version="1.0" encoding="UTF-8"?>
<svg width="40px" height="34px" viewBox="0 0 40 34" version="1.1" xmlns="http://www.w3.org/2000/svg" xmlns:xlink="http://www.w3.org/1999/xlink">
    <!-- Generator: Sketch 60.1 (88133) - https://sketch.com -->
    <title>bg-element-14</title>
    <desc>Created with Sketch.</desc>
    <g id="Page-1" stroke="none" stroke-width="1" fill="none" fill-rule="evenodd" opacity="0.301195145">
        <g id="01-Index-Desktop" transform="translate(-48.000000, -1095.000000)" fill="#D0021B" fill-rule="nonzero">
            <g id="Content" transform="translate(0.000000, 120.000000)">
                <g id="About" transform="translate(0.000000, 677.000000)">
                    <g id="BG">
                        <path d="M78.1445152,291.21822 L76.886153,291.21822 L76.886153,325.652711 C76.4211278,325.153175 75.8044206,324.754155 75.1248451,324.500326 C74.1668533,324.121613 73.1110665,323.963223 72.0602692,323.947993 C69.9496935,323.927687 67.859076,324.537893 66.0718225,325.525797 C64.2815753,326.517762 62.8026754,327.993018 61.9554514,329.701797 C61.1241939,331.367933 60.7240328,333.376231 61.7828133,334.967234 C62.8625499,336.546052 65.0629374,337.161335 67.1006658,337.214131 C69.1882896,337.272004 71.2968695,336.712564 73.0851209,335.726691 C74.8643911,334.732695 76.4031655,333.325465 77.3142556,331.617701 C77.766308,330.770927 78.0686741,329.85511 78.1295465,328.923049 C78.1395256,328.81441 78.1255549,328.705771 78.1255549,328.596117 L78.1435173,328.635714 L78.1435173,291.21822 L78.1445152,291.21822 Z" id="bg-element-14" transform="translate(69.644515, 314.218220) rotate(-245.000000) translate(-69.644515, -314.218220) "></path>
                    </g>
                </g>
            </g>
        </g>
    </g>
</svg>