<?xml version="1.0" encoding="UTF-8"?>
<svg width="73px" height="54px" viewBox="0 0 73 54" version="1.1" xmlns="http://www.w3.org/2000/svg" xmlns:xlink="http://www.w3.org/1999/xlink">
    <!-- Generator: Sketch 60.1 (88133) - https://sketch.com -->
    <title>bg-element-05</title>
    <desc>Created with Sketch.</desc>
    <g id="Page-1" stroke="none" stroke-width="1" fill="none" fill-rule="evenodd" opacity="0.301195145">
        <g id="01-Index-Desktop" transform="translate(-1086.000000, -1226.000000)" fill="#50E3C2" fill-rule="nonzero">
            <g id="Content" transform="translate(0.000000, 120.000000)">
                <g id="About" transform="translate(0.000000, 677.000000)">
                    <g id="BG">
                        <path d="M1094.11705,450.902648 L1094.1022,482.583658 L1094.02797,482.60163 L1094.02797,491 L1135.76817,480.463979 L1136.27827,480.441778 L1136.27297,444.079501 L1136.17434,443.869119 C1136.64414,444.352258 1137.24226,444.751879 1137.90932,445.019349 C1138.91467,445.440113 1140.03032,445.635695 1141.14914,445.682212 C1143.38998,445.764673 1145.62975,445.190615 1147.55774,444.214823 C1149.48467,443.23163 1151.09875,441.740983 1152.05002,439.987094 C1152.97902,438.276549 1153.4626,436.197044 1152.38407,434.511872 C1151.28222,432.836216 1148.96078,432.131066 1146.79736,432.016889 C1144.58092,431.897425 1142.32736,432.417566 1140.39937,433.392301 C1138.4788,434.374437 1136.80534,435.795309 1135.78832,437.546027 C1135.2814,438.413985 1134.93461,439.361233 1134.84341,440.327511 C1134.78721,440.769419 1134.83069,441.214499 1134.93568,441.641606 L1134.92189,472.28022 L1095.45646,482.241126 L1095.45222,453.339486 L1095.35571,453.131219 C1095.82233,453.612243 1096.42257,454.012921 1097.08963,454.279334 C1098.09392,454.701156 1099.21169,454.896737 1100.32733,454.943254 C1102.56923,455.027829 1104.809,454.4506 1106.73593,453.474807 C1108.66392,452.493729 1110.278,451.002025 1111.22821,449.248136 C1112.15827,447.538649 1112.64291,445.4602 1111.56227,443.772914 C1110.46041,442.097258 1108.13897,441.392108 1105.97661,441.277931 C1103.75805,441.158467 1101.50449,441.679665 1099.57756,442.652286 C1097.65806,443.635479 1095.98247,445.055294 1094.96545,446.807069 C1094.45959,447.677141 1094.11281,448.621218 1094.02266,449.588553 C1093.96964,450.028347 1094.01312,450.473426 1094.11705,450.902648 Z" id="bg-element-05" transform="translate(1123.500000, 461.500000) rotate(-287.000000) translate(-1123.500000, -461.500000) "></path>
                    </g>
                </g>
            </g>
        </g>
    </g>
</svg>