<?xml version="1.0" encoding="UTF-8"?>
<svg width="74px" height="64px" viewBox="0 0 74 64" version="1.1" xmlns="http://www.w3.org/2000/svg" xmlns:xlink="http://www.w3.org/1999/xlink">
    <!-- Generator: Sketch 60.1 (88133) - https://sketch.com -->
    <title>bg-element-01</title>
    <desc>Created with Sketch.</desc>
    <g id="Page-1" stroke="none" stroke-width="1" fill="none" fill-rule="evenodd" opacity="0.301195145">
        <g id="01-Index-Desktop" transform="translate(-64.000000, -822.000000)" fill="#17A888" fill-rule="nonzero">
            <g id="Content" transform="translate(0.000000, 120.000000)">
                <g id="About" transform="translate(0.000000, 677.000000)">
                    <g id="BG">
                        <path d="M127.317841,31.3820933 L127.30001,31.3820933 L126.59308,31.3820933 L85.4133903,31.3820933 L85.4133903,31.3833072 L85.3915324,31.3833072 L85.3915324,72.5519501 C85.1234857,71.9547049 84.7680074,71.4776371 84.376291,71.1741589 C83.8240916,70.7213694 83.215522,70.531999 82.6098283,70.5150042 C81.3932642,70.489512 80.1882042,71.2190737 79.1580073,72.400211 C78.1260849,73.5862039 77.2736272,75.3500194 76.7852759,77.3930348 C76.3061279,79.3850659 76.0754697,81.7861857 76.685765,83.6883872 C77.3081396,85.5760218 78.5764724,86.312867 79.7510464,86.3747765 C80.9543808,86.4439696 82.1697945,85.7751036 83.2005666,84.5963941 C84.2261618,83.4091873 85.1131319,81.7254901 85.6382965,79.6836885 C85.8988656,78.6712851 86.0731535,77.5763357 86.1082411,76.4619636 C86.1139932,76.3320749 86.1059403,76.2034002 86.1059403,76.0710837 L86.116294,76.1184263 L86.116294,47.3984604 L105.992018,47.3984604 L105.992018,72.553164 C105.723972,71.9559188 105.368493,71.4788511 104.976777,71.1753728 C104.424578,70.7225833 103.816008,70.5332129 103.210314,70.5162181 C101.99375,70.4907259 100.78869,71.2202876 99.7584934,72.4014249 C98.7265709,73.5874178 97.8741132,75.3512333 97.3857619,77.3942487 C96.906614,79.3862798 96.6759557,81.7873996 97.286251,83.6896012 C97.9086257,85.5772358 99.1769585,86.3140809 100.351532,86.3759905 C101.554867,86.4451835 102.770281,85.7763175 103.801053,84.597608 C104.826648,83.4104012 105.713618,81.726704 106.238783,79.6849024 C106.499352,78.672499 106.67364,77.5775496 106.708727,76.4631775 C106.714479,76.3332888 106.706426,76.2046141 106.706426,76.0722976 L106.71678,76.1196402 L106.71678,47.3996743 L126.592505,47.3996743 L126.592505,72.5543779 C126.324458,71.9571328 125.968979,71.480065 125.577263,71.1765867 C125.025064,70.7237972 124.416494,70.5344268 123.8108,70.5162181 C122.594236,70.4907259 121.389176,71.2215015 120.358979,72.4026388 C119.327057,73.5886317 118.474599,75.3524472 117.986248,77.3954627 C117.5071,79.3874938 117.276442,81.7886135 117.886737,83.6908151 C118.509112,85.5784497 119.777445,86.3140809 120.952019,86.3772044 C122.155353,86.4463974 123.370767,85.7775314 124.401539,84.5988219 C125.427134,83.4116151 126.314104,81.7279179 126.839269,79.6861163 C127.099838,78.673713 127.274126,77.5787635 127.309213,76.4643914 C127.314965,76.3345028 127.306912,76.2046141 127.306912,76.0735115 L127.317266,76.1208541 L127.317266,31.3820933 L127.317841,31.3820933 Z M86.116294,45.4112849 L86.116294,40.0470037 L105.992018,40.0470037 L105.992018,45.4112849 L86.116294,45.4112849 Z M106.717355,45.4112849 L106.717355,40.0470037 L126.59308,40.0470037 L126.59308,45.4112849 L106.717355,45.4112849 Z" id="bg-element-01" transform="translate(101.817841, 58.882093) rotate(-125.000000) translate(-101.817841, -58.882093) "></path>
                    </g>
                </g>
            </g>
        </g>
    </g>
</svg>