<?xml version="1.0" encoding="UTF-8"?>
<svg width="72px" height="54px" viewBox="0 0 72 54" version="1.1" xmlns="http://www.w3.org/2000/svg" xmlns:xlink="http://www.w3.org/1999/xlink">
    <!-- Generator: Sketch 60.1 (88133) - https://sketch.com -->
    <title>bg-element-11</title>
    <desc>Created with Sketch.</desc>
    <g id="Page-1" stroke="none" stroke-width="1" fill="none" fill-rule="evenodd" opacity="0.301195145">
        <g id="01-Index-Desktop" transform="translate(-269.000000, -1120.000000)" fill="#000000" fill-rule="nonzero">
            <g id="Content" transform="translate(0.000000, 120.000000)">
                <g id="About" transform="translate(0.000000, 677.000000)">
                    <g id="BG">
                        <path d="M274,365.803035 L274,367.760488 L274.272211,367.693885 L274.269952,373.0131 L274.192016,373.03342 L274.192016,382 L318.648312,370.750853 L319.190476,370.726018 L319.184828,331.897554 L319.080913,331.675168 C319.579026,332.18993 320.218328,332.616642 320.928788,332.901116 C321.998432,333.350404 323.188933,333.560373 324.376046,333.610044 C326.764954,333.699224 329.150475,333.083992 331.20392,332.042049 C333.256235,330.994462 334.975346,329.401632 335.987385,327.528844 C336.977964,325.702339 337.493019,323.484118 336.34318,321.68132 C335.169622,319.893197 332.697129,319.140243 330.394063,319.018326 C328.032262,318.889635 325.632058,319.445037 323.578613,320.485851 C321.533075,321.535696 319.748452,323.051763 318.666384,324.921164 C318.127609,325.85135 317.75826,326.859427 317.662252,327.892339 C317.602388,328.364205 317.648697,328.838328 317.759389,329.295519 L317.748094,354.728863 L275.710075,365.367293 L275.706686,341.787547 L275.603901,341.562902 C276.102014,342.079923 276.739056,342.505505 277.450646,342.791108 C278.52142,343.240397 279.709662,343.450366 280.900163,343.500036 C283.287942,343.588087 285.671204,342.973984 287.725778,341.930912 C289.778094,340.883325 291.497205,339.290496 292.509243,337.417707 C293.499822,335.591203 294.014877,333.371853 292.866168,331.571312 C291.692609,329.783189 289.220117,329.030235 286.91818,328.907189 C284.556379,328.780756 282.155046,329.336158 280.100471,330.375843 C278.056062,331.425688 276.27257,332.941755 275.188242,334.811157 C274.650596,335.739084 274.281247,336.749419 274.18411,337.781202 C274.124246,338.253068 274.170556,338.728321 274.282377,339.18664 L274.268823,365.731917 L274,365.803035 Z M317.746965,356.845486 L317.745835,362.013433 L275.712334,372.649606 L275.712334,367.334906 L317.746965,356.845486 Z" id="bg-element-11" transform="translate(305.500000, 350.500000) rotate(-351.000000) translate(-305.500000, -350.500000) "></path>
                    </g>
                </g>
            </g>
        </g>
    </g>
</svg>