<?xml version="1.0" encoding="UTF-8"?>
<svg width="65px" height="101px" viewBox="0 0 65 101" version="1.1" xmlns="http://www.w3.org/2000/svg" xmlns:xlink="http://www.w3.org/1999/xlink">
    <!-- Generator: Sketch 60.1 (88133) - https://sketch.com -->
    <title>bg-element-04</title>
    <desc>Created with Sketch.</desc>
    <g id="Page-1" stroke="none" stroke-width="1" fill="none" fill-rule="evenodd" opacity="0.301195145">
        <g id="01-Index-Desktop" transform="translate(-1327.000000, -1175.000000)" fill="#D07171" fill-rule="nonzero">
            <g id="Content" transform="translate(0.000000, 120.000000)">
                <g id="About" transform="translate(0.000000, 677.000000)">
                    <g id="BG">
                        <path d="M1406.35555,404.105171 L1406.32338,404.105171 L1405.04711,404.105171 L1330.76302,404.105171 L1330.76302,404.106208 L1330.72359,404.106208 L1330.72359,439.288238 C1330.24006,438.777842 1329.59881,438.370148 1328.89219,438.110801 C1327.89608,437.723854 1326.79828,437.562022 1325.70567,437.547498 C1323.51111,437.525713 1321.3373,438.149184 1319.47893,439.158564 C1317.61744,440.172094 1316.07969,441.679421 1315.19875,443.425347 C1314.33442,445.127704 1313.91833,447.17966 1315.01924,448.80525 C1316.14195,450.41839 1318.42989,451.048086 1320.54871,451.100993 C1322.71941,451.160124 1324.91189,450.588522 1326.7713,449.581217 C1328.62138,448.56665 1330.22138,447.127791 1331.16873,445.382901 C1331.63877,444.517719 1331.95317,443.581993 1332.01646,442.62967 C1332.02684,442.518669 1332.01231,442.408706 1332.01231,442.29563 L1332.03099,442.336088 L1332.03099,411.510057 L1367.88483,411.510057 L1367.88483,439.288238 C1367.4013,438.777842 1366.76005,438.370148 1366.05344,438.110801 C1365.05732,437.723854 1363.95952,437.562022 1362.86691,437.547498 C1360.67235,437.525713 1358.49854,438.149184 1356.64017,439.158564 C1354.77868,440.172094 1353.24093,441.679421 1352.35999,443.425347 C1351.49566,445.127704 1351.07957,447.17966 1352.18049,448.80525 C1353.30319,450.41839 1355.59114,451.048086 1357.70995,451.100993 C1359.88065,451.160124 1362.07313,450.588522 1363.93255,449.581217 C1365.78262,448.56665 1367.38262,447.127791 1368.32997,445.382901 C1368.80001,444.517719 1369.11441,443.581993 1369.1777,442.62967 C1369.18808,442.518669 1369.17355,442.408706 1369.17355,442.29563 L1369.19223,442.336088 L1369.19223,411.510057 L1405.04607,411.510057 L1405.04607,439.288238 C1404.56254,438.777842 1403.9213,438.370148 1403.21468,438.110801 C1402.21856,437.723854 1401.12077,437.562022 1400.02815,437.546461 C1397.83359,437.524675 1395.65978,438.149184 1393.80141,439.158564 C1391.93992,440.172094 1390.40217,441.679421 1389.52124,443.425347 C1388.6569,445.127704 1388.24082,447.17966 1389.34173,448.80525 C1390.46443,450.41839 1392.75238,451.047048 1394.87119,451.100993 C1397.04189,451.160124 1399.23438,450.588522 1401.09379,449.581217 C1402.94386,448.56665 1404.54387,447.127791 1405.49121,445.382901 C1405.96125,444.517719 1406.27565,443.581993 1406.33895,442.62967 C1406.34932,442.518669 1406.33479,442.407668 1406.33479,442.29563 L1406.35243,442.336088 L1406.35243,404.105171 L1406.35555,404.105171 Z" id="bg-element-04" transform="translate(1360.355547, 427.605171) rotate(-254.000000) translate(-1360.355547, -427.605171) "></path>
                    </g>
                </g>
            </g>
        </g>
    </g>
</svg>