<?xml version="1.0" encoding="UTF-8"?>
<svg width="67px" height="54px" viewBox="0 0 67 54" version="1.1" xmlns="http://www.w3.org/2000/svg" xmlns:xlink="http://www.w3.org/1999/xlink">
    <!-- Generator: Sketch 60.1 (88133) - https://sketch.com -->
    <title>bg-element-10</title>
    <desc>Created with Sketch.</desc>
    <g id="Page-1" stroke="none" stroke-width="1" fill="none" fill-rule="evenodd" opacity="0.301195145">
        <g id="01-Index-Desktop" transform="translate(-1131.000000, -1080.000000)" fill="#000000" fill-rule="nonzero">
            <g id="Content" transform="translate(0.000000, 120.000000)">
                <g id="About" transform="translate(0.000000, 677.000000)">
                    <g id="BG">
                        <path d="M1134.6316,325.227216 L1134.6316,327.091457 L1134.89085,327.028026 L1134.88869,332.093945 L1134.81447,332.113297 L1134.81447,340.652897 L1177.1538,329.939424 L1177.67015,329.915772 L1177.66477,292.936282 L1177.5658,292.724485 C1178.04019,293.214736 1178.64905,293.621127 1179.32568,293.892055 C1180.34439,294.319949 1181.4782,294.519919 1182.60878,294.567224 C1184.88393,294.652158 1187.15586,294.066223 1189.11152,293.073896 C1191.06611,292.076194 1192.70336,290.559213 1193.6672,288.775606 C1194.61061,287.036077 1195.10114,284.923486 1194.00605,283.206535 C1192.88838,281.50356 1190.53363,280.786462 1188.34023,280.67035 C1186.09089,280.547787 1183.80499,281.076742 1181.84932,282.067993 C1179.90119,283.067846 1178.20155,284.511719 1177.17101,286.292101 C1176.65789,287.177992 1176.30613,288.138065 1176.21469,289.121791 C1176.15768,289.571187 1176.20179,290.022733 1176.30721,290.458153 L1176.29645,314.680385 L1136.26024,324.812224 L1136.25701,302.355322 L1136.15912,302.141375 C1136.63352,302.633776 1137.24022,303.039092 1137.91793,303.311095 C1138.93771,303.738989 1140.06937,303.93896 1141.20318,303.986264 C1143.47726,304.070123 1145.74703,303.485263 1147.70377,302.491861 C1149.65835,301.494159 1151.2956,299.977179 1152.25945,298.193571 C1153.20286,296.454043 1153.69339,294.340376 1152.59938,292.625575 C1151.4817,290.922601 1149.12695,290.205502 1146.93463,290.088315 C1144.68529,289.967903 1142.39831,290.496857 1140.44157,291.487034 C1138.49451,292.486886 1136.79595,293.930759 1135.76326,295.711141 C1135.25121,296.594882 1134.89945,297.557106 1134.80694,298.539756 C1134.74993,298.989152 1134.79403,299.441774 1134.90053,299.878268 L1134.88762,325.159484 L1134.6316,325.227216 Z M1176.29537,316.696217 L1176.2943,321.618071 L1136.26239,331.747759 L1136.26239,326.686141 L1176.29537,316.696217 Z" id="bg-element-10" transform="translate(1164.631597, 310.652897) rotate(-353.000000) translate(-1164.631597, -310.652897) "></path>
                    </g>
                </g>
            </g>
        </g>
    </g>
</svg>