<?xml version="1.0" encoding="UTF-8"?>
<svg width="60px" height="41px" viewBox="0 0 60 41" version="1.1" xmlns="http://www.w3.org/2000/svg" xmlns:xlink="http://www.w3.org/1999/xlink">
    <!-- Generator: Sketch 60.1 (88133) - https://sketch.com -->
    <title>bg-element-07</title>
    <desc>Created with Sketch.</desc>
    <g id="Page-1" stroke="none" stroke-width="1" fill="none" fill-rule="evenodd" opacity="0.301195145">
        <g id="01-Index-Desktop" transform="translate(-1371.000000, -835.000000)" fill="#50E3C2" fill-rule="nonzero">
            <g id="Content" transform="translate(0.000000, 120.000000)">
                <g id="About" transform="translate(0.000000, 677.000000)">
                    <g id="BG">
                        <path d="M1379.676,54.8696637 L1379.66493,78.4961795 L1379.60957,78.5095826 L1379.60957,84.7727735 L1410.73785,76.9154018 L1411.11827,76.8988451 L1411.11431,49.7812153 L1411.04076,49.6243201 C1411.39112,49.9846271 1411.83718,50.282649 1412.33464,50.4821187 C1413.0844,50.795909 1413.91641,50.9417663 1414.75079,50.9764567 C1416.42192,51.0379532 1418.09226,50.6098424 1419.53008,49.8821328 C1420.96711,49.1489042 1422.17083,48.0372351 1422.88025,46.72925 C1423.57306,45.4535901 1423.9337,43.9027723 1423.12938,42.6460343 C1422.30765,41.3963921 1420.57641,40.8705175 1418.96302,40.7853683 C1417.31008,40.6962771 1415.62945,41.0841787 1414.19163,41.8110999 C1412.75935,42.54354 1411.51134,43.6031735 1410.75288,44.9087934 C1410.37484,45.5560844 1410.11622,46.2625067 1410.04821,46.9831206 C1410.00629,47.3126792 1410.03872,47.6446031 1410.11701,47.9631239 L1410.10673,70.8122597 L1380.67489,78.2407321 L1380.67172,56.6869667 L1380.59975,56.5316484 C1380.94774,56.8903785 1381.39538,57.1891888 1381.89284,57.3878701 C1382.64181,57.7024488 1383.47539,57.8483061 1384.3074,57.8829965 C1385.97932,57.9460699 1387.64966,57.5155938 1389.0867,56.7878842 C1390.52452,56.0562325 1391.72824,54.943775 1392.43687,53.6357898 C1393.13047,52.3609183 1393.4919,50.8108889 1392.686,49.5525741 C1391.86427,48.3029319 1390.13303,47.7770573 1388.52042,47.6919082 C1386.8659,47.6028169 1385.18528,47.9915069 1383.74825,48.7168513 C1382.31675,49.4500798 1381.06716,50.5089249 1380.30871,51.8153332 C1379.93146,52.464201 1379.67284,53.1682581 1379.60561,53.8896604 C1379.56607,54.2176422 1379.5985,54.5495661 1379.676,54.8696637 Z" id="bg-element-07" transform="translate(1401.588713, 62.772773) rotate(-300.000000) translate(-1401.588713, -62.772773) "></path>
                    </g>
                </g>
            </g>
        </g>
    </g>
</svg>