<?xml version="1.0" encoding="UTF-8"?>
<svg width="93px" height="115px" viewBox="0 0 93 115" version="1.1" xmlns="http://www.w3.org/2000/svg" xmlns:xlink="http://www.w3.org/1999/xlink">
    <!-- Generator: Sketch 60.1 (88133) - https://sketch.com -->
    <title>bg-element-03</title>
    <desc>Created with Sketch.</desc>
    <g id="Page-1" stroke="none" stroke-width="1" fill="none" fill-rule="evenodd" opacity="0.301195145">
        <g id="01-Index-Desktop" transform="translate(-1099.000000, -824.000000)" fill="#D07171" fill-rule="nonzero">
            <g id="Content" transform="translate(0.000000, 120.000000)">
                <g id="About" transform="translate(0.000000, 677.000000)">
                    <g id="BG">
                        <path d="M1194.8676,58.4849681 L1194.83054,58.4849681 L1193.36005,58.4849681 L1107.77186,58.4849681 L1107.77186,58.48616 L1107.72643,58.48616 L1107.72643,98.9080664 C1107.16932,98.3216544 1106.43049,97.8532399 1105.61634,97.5552663 C1104.46865,97.1106897 1103.20379,96.9247541 1101.94491,96.9080676 C1099.4164,96.8830378 1096.91179,97.5993664 1094.77062,98.7590796 C1092.62586,99.9235604 1090.85411,101.655383 1089.83912,103.661341 C1088.84325,105.61724 1088.36385,107.974807 1089.63229,109.842506 C1090.92584,111.695901 1093.56195,112.419381 1096.0032,112.480168 C1098.50422,112.548106 1101.03034,111.891372 1103.17271,110.734043 C1105.30431,109.56837 1107.1478,107.915212 1108.2393,105.910446 C1108.78087,104.916406 1109.14312,103.841317 1109.21604,102.747158 C1109.228,102.619626 1109.21126,102.493285 1109.21126,102.363368 L1109.23278,102.409852 L1109.23278,66.9927103 L1150.54264,66.9927103 L1150.54264,98.9080664 C1149.98553,98.3216544 1149.2467,97.8532399 1148.43256,97.5552663 C1147.28486,97.1106897 1146.02,96.9247541 1144.76113,96.9080676 C1142.23261,96.8830378 1139.728,97.5993664 1137.58683,98.7590796 C1135.44208,99.9235604 1133.67032,101.655383 1132.65533,103.661341 C1131.65947,105.61724 1131.18006,107.974807 1132.44851,109.842506 C1133.74205,111.695901 1136.37817,112.419381 1138.81941,112.480168 C1141.32043,112.548106 1143.84656,111.891372 1145.98892,110.734043 C1148.12053,109.56837 1149.96401,107.915212 1151.05552,105.910446 C1151.59709,104.916406 1151.95933,103.841317 1152.03226,102.747158 C1152.04421,102.619626 1152.02747,102.493285 1152.02747,102.363368 L1152.04899,102.409852 L1152.04899,66.9927103 L1193.35886,66.9927103 L1193.35886,98.9080664 C1192.80175,98.3216544 1192.06292,97.8532399 1191.24877,97.5552663 C1190.10107,97.1106897 1188.83622,96.9247541 1187.57734,96.9068757 C1185.04882,96.8818459 1182.54422,97.5993664 1180.40305,98.7590796 C1178.25829,99.9235604 1176.48654,101.655383 1175.47154,103.661341 C1174.47568,105.61724 1173.99628,107.974807 1175.26472,109.842506 C1176.55827,111.695901 1179.19438,112.418189 1181.63562,112.480168 C1184.13664,112.548106 1186.66277,111.891372 1188.80513,110.734043 C1190.93674,109.56837 1192.78023,107.915212 1193.87173,105.910446 C1194.4133,104.916406 1194.77554,103.841317 1194.84847,102.747158 C1194.86042,102.619626 1194.84369,102.492093 1194.84369,102.363368 L1194.86401,102.409852 L1194.86401,58.4849681 L1194.8676,58.4849681 Z" id="bg-element-03" transform="translate(1141.867597, 85.484968) rotate(-50.000000) translate(-1141.867597, -85.484968) "></path>
                    </g>
                </g>
            </g>
        </g>
    </g>
</svg>